HIERARCHY
ROOT hips
{
	OFFSET -0.003675 0.299928 -0.021708
	CHANNELS 6 Xposition Yposition Zposition Xrotation Yrotation Zrotation
	JOINT LowerBack
	{
		OFFSET 0.000919 0.177588 0.009275
		CHANNELS 3 Xrotation Yrotation Zrotation
		JOINT spine
		{
			OFFSET 0.000919 0.177588 0.009275
			CHANNELS 3 Xrotation Yrotation Zrotation
			JOINT chest
			{
				OFFSET 0.000456 0.100015 0.004638
				CHANNELS 3 Xrotation Yrotation Zrotation
				JOINT neck
				{
					OFFSET 0.000456 0.100015 0.004638
					CHANNELS 3 Xrotation Yrotation Zrotation
					JOINT head
					{
						OFFSET 0.000924 0.155147 0.009274
						CHANNELS 6 Xposition Yposition Zposition Xrotation Yrotation Zrotation
						End Site
						{
							OFFSET 0.000000 0.153400 0.000000
						}
					}
				}
				JOINT shoulder.L
				{
					OFFSET 0.019937 0.078966 0.057518
					CHANNELS 6 Xposition Yposition Zposition Yrotation Xrotation Zrotation
					JOINT upper_arm.L
					{
						OFFSET 0.177024 -0.020465 -0.095062
						CHANNELS 6 Xposition Yposition Zposition Xrotation Yrotation Zrotation
						JOINT forearm.L
						{
							OFFSET 0.247100 -0.135500 -0.061800
							CHANNELS 3 Xrotation Yrotation Zrotation
							JOINT hand.L
							{
								OFFSET 0.217000 -0.143000 0.039300
								CHANNELS 3 Xrotation Yrotation Zrotation
								JOINT palm.01.L
								{
									OFFSET 0.021770 -0.038291 0.012954
									CHANNELS 6 Xposition Yposition Zposition Yrotation Xrotation Zrotation
									JOINT f_index.01.L
									{
										OFFSET 0.053215 -0.044137 0.008236
										CHANNELS 3 Xrotation Yrotation Zrotation
										JOINT f_index.02.L
										{
											OFFSET 0.036108 -0.024723 -0.010656
											CHANNELS 3 Xrotation Yrotation Zrotation
											JOINT f_index.03.L
											{
												OFFSET 0.021342 -0.014948 -0.010846
												CHANNELS 3 Xrotation Yrotation Zrotation
												End Site
												{
													OFFSET 0.015600 -0.009860 -0.013421
												}
											}
										}
									}
									JOINT thumb.01.L
									{
										OFFSET -0.009090 -0.002348 -0.024223
										CHANNELS 6 Xposition Yposition Zposition Xrotation Yrotation Zrotation
										JOINT thumb.02.L
										{
											OFFSET 0.019713 -0.035076 -0.011120
											CHANNELS 3 Xrotation Yrotation Zrotation
											JOINT thumb.03.L
											{
												OFFSET 0.024877 -0.021748 -0.005176
												CHANNELS 3 Xrotation Yrotation Zrotation
												End Site
												{
													OFFSET 0.016125 -0.013029 -0.001569
												}
											}
										}
									}
								}
								JOINT palm.02.L
								{
									OFFSET 0.032823 -0.025104 0.012281
									CHANNELS 6 Xposition Yposition Zposition Yrotation Xrotation Zrotation
									JOINT f_middle.01.L
									{
										OFFSET 0.055723 -0.038469 0.008037
										CHANNELS 3 Xrotation Yrotation Zrotation
										JOINT f_middle.02.L
										{
											OFFSET 0.038167 -0.027473 -0.015582
											CHANNELS 3 Xrotation Yrotation Zrotation
											JOINT f_middle.03.L
											{
												OFFSET 0.021707 -0.016587 -0.017037
												CHANNELS 3 Xrotation Yrotation Zrotation
												End Site
												{
													OFFSET 0.014112 -0.010584 -0.014294
												}
											}
										}
									}
								}
								JOINT palm.03.L
								{
									OFFSET 0.039230 -0.011402 0.008390
									CHANNELS 6 Xposition Yposition Zposition Yrotation Xrotation Zrotation
									JOINT f_ring.01.L
									{
										OFFSET 0.061796 -0.031470 0.007910
										CHANNELS 3 Xrotation Yrotation Zrotation
										JOINT f_ring.02.L
										{
											OFFSET 0.033092 -0.023401 -0.019127
											CHANNELS 3 Xrotation Yrotation Zrotation
											JOINT f_ring.03.L
											{
												OFFSET 0.021392 -0.015362 -0.017824
												CHANNELS 3 Xrotation Yrotation Zrotation
												End Site
												{
													OFFSET 0.008670 -0.007297 -0.014686
												}
											}
										}
									}
								}
								JOINT palm.04.L
								{
									OFFSET 0.043417 0.002450 0.002889
									CHANNELS 6 Xposition Yposition Zposition Yrotation Xrotation Zrotation
									JOINT f_pinky.01.L
									{
										OFFSET 0.069986 -0.026156 0.003627
										CHANNELS 3 Xrotation Yrotation Zrotation
										JOINT f_pinky.02.L
										{
											OFFSET 0.018520 -0.012813 -0.016429
											CHANNELS 3 Xrotation Yrotation Zrotation
											JOINT f_pinky.03.L
											{
												OFFSET 0.013822 -0.009796 -0.014947
												CHANNELS 3 Xrotation Yrotation Zrotation
												End Site
												{
													OFFSET 0.007238 -0.006103 -0.011657
												}
											}
										}
									}
								}
							}
						}
					}
				}
				JOINT shoulder.R
				{
					OFFSET -0.016662 0.078957 0.057696
					CHANNELS 6 Xposition Yposition Zposition Yrotation Xrotation Zrotation
					JOINT upper_arm.R
					{
						OFFSET -0.176972 -0.020537 -0.095144
						CHANNELS 6 Xposition Yposition Zposition Xrotation Yrotation Zrotation
						JOINT forearm.R
						{
							OFFSET -0.247100 -0.135500 -0.061800
							CHANNELS 3 Xrotation Yrotation Zrotation
							JOINT hand.R
							{
								OFFSET -0.217000 -0.143000 0.039300
								CHANNELS 3 Xrotation Yrotation Zrotation
								JOINT palm.01.R
								{
									OFFSET -0.021773 -0.038278 0.012988
									CHANNELS 6 Xposition Yposition Zposition Yrotation Xrotation Zrotation
									JOINT f_index.01.R
									{
										OFFSET -0.053212 -0.044139 0.008249
										CHANNELS 3 Xrotation Yrotation Zrotation
										JOINT f_index.02.R
										{
											OFFSET -0.036049 -0.024835 -0.010634
											CHANNELS 3 Xrotation Yrotation Zrotation
											JOINT f_index.03.R
											{
												OFFSET -0.021371 -0.014881 -0.010866
												CHANNELS 3 Xrotation Yrotation Zrotation
												End Site
												{
													OFFSET -0.015584 -0.009883 -0.013422
												}
											}
										}
									}
									JOINT thumb.01.R
									{
										OFFSET 0.009113 -0.002381 -0.024211
										CHANNELS 6 Xposition Yposition Zposition Xrotation Yrotation Zrotation
										JOINT thumb.02.R
										{
											OFFSET -0.019694 -0.035097 -0.011088
											CHANNELS 3 Xrotation Yrotation Zrotation
											JOINT thumb.03.R
											{
												OFFSET -0.024867 -0.021762 -0.005168
												CHANNELS 3 Xrotation Yrotation Zrotation
												End Site
												{
													OFFSET -0.016120 -0.013036 -0.001565
												}
											}
										}
									}
								}
								JOINT palm.02.R
								{
									OFFSET -0.032828 -0.025095 0.012286
									CHANNELS 6 Xposition Yposition Zposition Yrotation Xrotation Zrotation
									JOINT f_middle.01.R
									{
										OFFSET -0.055721 -0.038472 0.008040
										CHANNELS 3 Xrotation Yrotation Zrotation
										JOINT f_middle.02.R
										{
											OFFSET -0.038101 -0.027593 -0.015557
											CHANNELS 3 Xrotation Yrotation Zrotation
											JOINT f_middle.03.R
											{
												OFFSET -0.021730 -0.016530 -0.017054
												CHANNELS 3 Xrotation Yrotation Zrotation
												End Site
												{
													OFFSET -0.014096 -0.010608 -0.014293
												}
											}
										}
									}
								}
								JOINT palm.03.R
								{
									OFFSET -0.039192 -0.011488 0.008390
									CHANNELS 6 Xposition Yposition Zposition Yrotation Xrotation Zrotation
									JOINT f_ring.01.R
									{
										OFFSET -0.061839 -0.031387 0.007876
										CHANNELS 3 Xrotation Yrotation Zrotation
										JOINT f_ring.02.R
										{
											OFFSET -0.033068 -0.023437 -0.019125
											CHANNELS 3 Xrotation Yrotation Zrotation
											JOINT f_ring.03.R
											{
												OFFSET -0.021371 -0.015393 -0.017822
												CHANNELS 3 Xrotation Yrotation Zrotation
												End Site
												{
													OFFSET -0.008654 -0.007321 -0.014684
												}
											}
										}
									}
								}
								JOINT palm.04.R
								{
									OFFSET -0.043421 0.002443 0.002845
									CHANNELS 6 Xposition Yposition Zposition Yrotation Xrotation Zrotation
									JOINT f_pinky.01.R
									{
										OFFSET -0.069983 -0.026169 0.003599
										CHANNELS 3 Xrotation Yrotation Zrotation
										JOINT f_pinky.02.R
										{
											OFFSET -0.018501 -0.012842 -0.016428
											CHANNELS 3 Xrotation Yrotation Zrotation
											JOINT f_pinky.03.R
											{
												OFFSET -0.013806 -0.009821 -0.014946
												CHANNELS 3 Xrotation Yrotation Zrotation
												End Site
												{
													OFFSET -0.007226 -0.006121 -0.011655
												}
											}
										}
									}
								}
							}
						}
					}
				}
			}
		}
	}
	JOINT pelvis.L
	{
		OFFSET 0.000000 0.000000 0.000000
		CHANNELS 6 Xposition Yposition Zposition Xrotation Yrotation Zrotation
		JOINT thigh.L
		{
			OFFSET 0.101675 0.001054 -0.000000
			CHANNELS 3 Xrotation Yrotation Zrotation
			JOINT shin.L
			{
				OFFSET 0.000000 -0.534800 0.041000
				CHANNELS 3 Xrotation Yrotation Zrotation
				JOINT foot.L
				{
					OFFSET 0.000000 -0.452000 -0.044800
					CHANNELS 3 Xrotation Yrotation Zrotation
					JOINT toe.L
					{
						OFFSET -0.000000 -0.068500 0.109600
						CHANNELS 3 Xrotation Yrotation Zrotation
						End Site
						{
							OFFSET -0.000000 0.000000 0.067200
						}
					}
				}
				JOINT heel.L
				{
					OFFSET 0.000000 -0.452000 -0.044800
					CHANNELS 3 Xrotation Yrotation Zrotation
					JOINT heel.02.L
					{
						OFFSET -0.038000 -0.085200 0.016200
						CHANNELS 6 Xposition Yposition Zposition Xrotation Yrotation Zrotation
						End Site
						{
							OFFSET 0.080000 -0.000000 0.000000
						}
					}
				}
			}
		}
	}
	JOINT pelvis.R
	{
		OFFSET 0.000000 0.000000 0.000000
		CHANNELS 6 Xposition Yposition Zposition Xrotation Yrotation Zrotation
		JOINT thigh.R
		{
			OFFSET -0.094325 0.001054 0.000000
			CHANNELS 3 Xrotation Yrotation Zrotation
			JOINT shin.R
			{
				OFFSET 0.000000 -0.534800 0.041000
				CHANNELS 3 Xrotation Yrotation Zrotation
				JOINT foot.R
				{
					OFFSET 0.000000 -0.452000 -0.044800
					CHANNELS 3 Xrotation Yrotation Zrotation
					JOINT toe.R
					{
						OFFSET -0.000000 -0.068500 0.109600
						CHANNELS 3 Xrotation Yrotation Zrotation
						End Site
						{
							OFFSET -0.000000 0.000000 0.067200
						}
					}
				}
				JOINT heel.R
				{
					OFFSET 0.000000 -0.452000 -0.044800
					CHANNELS 3 Xrotation Yrotation Zrotation
					JOINT heel.02.R
					{
						OFFSET 0.038000 -0.085200 0.016200
						CHANNELS 6 Xposition Yposition Zposition Xrotation Yrotation Zrotation
						End Site
						{
							OFFSET -0.080000 0.000000 -0.000000
						}
					}
				}
			}
		}
	}
}
MOTION
Frames: 4
Frame Time: 0.041667
-0.003675 0.299928 -0.021708 0.000000 -0.000000 0.000000 -0.000001 0.000000 0.000000 -0.000000 0.000000 0.000000 -0.000000 0.000000 0.000000 -0.000000 -0.000000 -0.000000 0.000924 0.155147 0.009274 -0.000001 -0.000000 -0.000000 0.019937 0.078966 0.057518 0.000001 0.000001 -0.000005 0.177024 -0.020465 -0.095062 -0.000006 -0.000003 0.000015 -0.000009 -0.000004 -0.000009 -0.000000 0.000000 0.000001 0.021770 -0.038291 0.012954 0.000001 -0.000001 0.000001 -0.000001 -0.000001 -0.000002 -0.000001 -0.000000 0.000007 -0.000000 0.000000 0.000003 -0.009090 -0.002348 -0.024224 -0.000002 0.000001 0.000001 0.000001 -0.000001 0.000001 -0.000000 0.000000 -0.000001 0.032823 -0.025104 0.012281 0.000000 -0.000000 0.000000 0.000001 0.000004 -0.000003 -0.000001 -0.000000 -0.000000 -0.000001 -0.000003 0.000003 0.039230 -0.011402 0.008390 -0.000000 -0.000000 0.000008 0.000001 0.000001 -0.000000 -0.000001 0.000003 -0.000001 0.000002 0.000002 -0.000000 0.043417 0.002450 0.002889 -0.000000 0.000001 0.000002 -0.000001 -0.000003 0.000001 -0.000000 0.000003 -0.000000 -0.000000 -0.000003 0.000001 -0.016662 0.078956 0.057696 -0.000001 0.000002 0.000011 -0.176972 -0.020537 -0.095144 0.000001 -0.000003 -0.000005 -0.000006 0.000005 -0.000014 -0.000001 -0.000000 0.000000 -0.021773 -0.038278 0.012988 0.000000 -0.000001 -0.000003 -0.000001 0.000001 -0.000003 -0.000001 -0.000000 0.000001 0.000001 0.000002 0.000007 0.009113 -0.002381 -0.024211 0.000002 -0.000001 0.000004 -0.000000 0.000001 0.000002 0.000000 0.000000 -0.000003 -0.032828 -0.025095 0.012286 0.000001 -0.000001 -0.000001 -0.000001 0.000003 -0.000003 -0.000002 0.000004 -0.000001 0.000001 -0.000002 -0.000000 -0.039192 -0.011488 0.008390 0.000000 0.000000 0.000001 -0.000000 0.000003 -0.000003 -0.000001 0.000001 0.000002 -0.000001 0.000000 -0.000003 -0.043421 0.002443 0.002844 -0.000000 -0.000001 0.000000 -0.000007 0.000003 -0.000002 -0.000003 -0.000000 -0.000000 0.000001 -0.000000 0.000001 -0.000000 0.000000 -0.000000 -0.000001 -0.000000 0.000001 0.000009 -0.000202 0.000014 -0.000026 0.000202 -0.000015 0.000000 -0.000000 -0.000000 0.000002 -0.000000 -0.000000 0.000000 0.000000 -0.000000 -0.038000 -0.085200 0.016200 0.000000 0.000000 0.000000 0.000000 -0.000000 -0.000000 -0.000001 0.000000 -0.000004 0.000008 -0.000013 0.000005 -0.000012 0.000013 -0.000001 -0.000003 -0.000000 -0.000000 0.000000 -0.000000 -0.000000 0.000002 -0.000000 -0.000000 0.038000 -0.085200 0.016200 0.000002 -0.000000 0.000000 
-0.006491 0.304447 -0.019158 9.536209 17.569750 -15.600369 -0.000001 -0.000002 0.000001 -0.000002 -0.000002 0.000001 0.000000 -0.000000 -0.000001 0.000000 -0.000000 -0.000001 0.000924 0.155147 0.009274 12.553059 -0.012931 -3.874862 0.019937 0.078966 0.057518 13.686693 6.338869 24.786649 0.177025 -0.020466 -0.095062 -2.381164 11.109668 -59.205514 -52.397759 13.795850 -80.989829 0.000001 0.000001 0.000003 0.021770 -0.038291 0.012954 -0.000001 -0.000000 -0.000002 -0.000001 -0.000003 -0.000000 0.000003 -0.000000 0.000005 -0.000002 0.000001 -0.000002 -0.009090 -0.002348 -0.024223 -0.000000 -0.000003 -0.000003 -0.000002 -0.000001 -0.000002 -0.000001 -0.000000 0.000001 0.032823 -0.025104 0.012281 -0.000002 0.000000 0.000002 0.000002 0.000001 -0.000005 -0.000003 -0.000000 0.000005 -0.000000 -0.000002 0.000006 0.039230 -0.011402 0.008390 -0.000000 0.000001 0.000001 -0.000002 -0.000001 -0.000002 -0.000000 0.000002 0.000005 0.000005 0.000000 0.000002 0.043417 0.002450 0.002889 -0.000000 -0.000000 -0.000005 0.000002 0.000000 -0.000004 -0.000000 0.000001 -0.000001 0.000004 -0.000001 0.000005 -0.016662 0.078957 0.057696 4.418783 6.641555 -33.566070 -0.176972 -0.020537 -0.095144 1.568094 -10.498896 61.531494 -51.671071 -16.721404 84.179363 0.000002 0.000001 -0.000004 -0.021773 -0.038278 0.012988 -0.000001 0.000002 -0.000003 -0.000000 0.000005 -0.000003 0.000002 -0.000001 -0.000006 -0.000001 -0.000003 -0.000000 0.009114 -0.002381 -0.024211 0.000003 0.000002 -0.000000 -0.000001 0.000003 -0.000001 0.000000 -0.000000 -0.000003 -0.032828 -0.025095 0.012286 0.000001 0.000001 -0.000005 -0.000001 0.000001 -0.000003 -0.000000 0.000000 -0.000006 -0.000000 0.000003 -0.000003 -0.039192 -0.011488 0.008390 0.000001 -0.000001 -0.000004 0.000001 0.000003 -0.000005 -0.000001 -0.000000 -0.000000 -0.000000 0.000004 -0.000002 -0.043421 0.002443 0.002845 -0.000000 0.000001 0.000000 0.000000 0.000003 -0.000001 0.000003 -0.000009 -0.000002 -0.000001 -0.000000 0.000001 0.000000 -0.000000 0.000000 -1.155141 -0.714001 8.714026 -14.341736 0.469350 7.111386 23.734839 -0.983860 9.979870 -0.000002 0.000003 -0.000000 -0.000002 0.000002 -0.000001 -0.000002 0.000004 0.000001 -0.038000 -0.085200 0.016200 0.000000 -0.000001 0.000001 0.000000 -0.000000 0.000000 -1.148790 -0.712955 9.948299 -8.174837 0.369479 3.986948 24.216779 -0.069821 0.705083 0.000002 0.000000 -0.000001 0.000001 0.000001 -0.000001 0.000005 -0.000001 0.000000 0.038000 -0.085200 0.016200 -0.000002 -0.000002 -0.000000 
-0.006695 0.301875 -0.019225 10.013741 15.367791 -16.437356 -0.000002 -0.000002 0.000002 -0.000001 -0.000001 0.000002 0.000000 -0.000000 0.000000 -0.000000 0.000000 0.000001 0.000924 0.155148 0.009274 11.014045 -0.012320 -4.922095 0.019937 0.078966 0.057518 13.085237 6.083160 24.889677 0.177024 -0.020465 -0.095062 -5.354936 11.140307 -57.171859 -51.890142 17.029063 -84.495000 -0.000001 -0.000001 -0.000002 0.021770 -0.038291 0.012954 0.000000 0.000001 -0.000001 -0.000001 0.000001 0.000003 0.000000 0.000001 0.000007 -0.000003 0.000003 0.000002 -0.009090 -0.002348 -0.024223 -0.000000 -0.000002 0.000003 0.000001 0.000001 -0.000000 0.000000 0.000000 0.000003 0.032823 -0.025104 0.012281 -0.000001 0.000002 0.000005 0.000001 0.000000 -0.000005 -0.000003 -0.000003 0.000001 -0.000000 0.000001 0.000001 0.039230 -0.011402 0.008390 0.000000 0.000001 0.000004 -0.000002 -0.000001 0.000001 -0.000000 0.000005 0.000005 0.000000 -0.000006 0.000005 0.043417 0.002450 0.002889 -0.000001 0.000003 -0.000002 -0.000000 -0.000004 -0.000002 0.000000 0.000003 -0.000005 -0.000000 -0.000002 0.000002 -0.016662 0.078957 0.057696 4.485224 6.809199 -34.838001 -0.176972 -0.020537 -0.095144 2.066494 -10.613276 59.863630 -45.717704 -11.562601 84.877613 0.000003 0.000001 0.000002 -0.021773 -0.038278 0.012988 -0.000001 0.000002 0.000000 -0.000001 -0.000000 0.000002 -0.000002 0.000001 -0.000006 0.000002 0.000006 0.000003 0.009114 -0.002381 -0.024211 -0.000002 -0.000002 0.000002 -0.000001 -0.000003 -0.000001 -0.000000 -0.000001 -0.000003 -0.032828 -0.025095 0.012286 -0.000001 0.000001 0.000001 -0.000003 0.000005 0.000001 0.000004 0.000002 -0.000006 0.000000 0.000002 -0.000001 -0.039192 -0.011488 0.008390 -0.000003 0.000004 -0.000004 -0.000001 0.000003 -0.000003 -0.000000 0.000002 -0.000000 -0.000003 0.000004 -0.000000 -0.043421 0.002443 0.002844 -0.000004 0.000001 0.000002 -0.000005 0.000003 0.000001 -0.000001 -0.000003 -0.000003 -0.000001 0.000007 0.000000 0.000000 0.000000 -0.000000 -1.184827 -0.810336 9.929633 -14.642030 0.574695 8.524536 21.823511 -0.885478 8.973247 -0.000003 0.000002 -0.000000 -0.000005 -0.000001 0.000001 0.000003 -0.000001 -0.000001 -0.038000 -0.085200 0.016200 -0.000001 -0.000000 0.000000 0.000000 -0.000000 -0.000000 -1.180460 -0.809519 11.163896 -7.835750 0.366939 3.967691 22.658963 -0.220301 2.223890 0.000002 -0.000001 -0.000001 0.000001 0.000001 0.000000 0.000005 0.000001 0.000000 0.038000 -0.085200 0.016200 -0.000000 -0.000000 -0.000001 
-0.007109 0.300437 -0.021594 12.105097 15.238476 -16.893827 -0.000000 -0.000001 -0.000002 0.000001 -0.000001 0.000001 0.000000 -0.000001 -0.000002 0.000000 -0.000001 -0.000001 0.000924 0.155148 0.009274 8.506364 -0.009906 -5.105848 0.019937 0.078966 0.057518 13.960010 5.858910 24.219977 0.177025 -0.020465 -0.095062 -3.959395 11.309436 -56.444741 -51.974126 19.939776 -86.956060 -0.000001 0.000001 0.000003 0.021770 -0.038291 0.012954 0.000000 0.000000 -0.000004 -0.000000 -0.000000 0.000005 0.000001 0.000001 0.000007 -0.000000 0.000001 -0.000000 -0.009090 -0.002348 -0.024224 0.000000 -0.000001 0.000004 0.000001 0.000000 0.000001 0.000000 -0.000000 -0.000002 0.032823 -0.025104 0.012281 0.000000 0.000000 0.000002 -0.000002 -0.000001 -0.000007 -0.000002 -0.000002 0.000001 -0.000001 0.000002 -0.000003 0.039230 -0.011402 0.008390 0.000001 0.000000 0.000003 0.000001 0.000000 -0.000002 0.000002 0.000005 -0.000002 0.000003 -0.000004 0.000002 0.043417 0.002450 0.002889 0.000001 0.000000 -0.000003 -0.000002 -0.000004 0.000001 -0.000001 -0.000003 0.000001 -0.000003 -0.000001 0.000001 -0.016662 0.078957 0.057696 5.083950 6.716450 -35.394798 -0.176972 -0.020537 -0.095144 5.994963 -11.537130 56.742691 -44.116612 -10.918375 86.054837 0.000001 -0.000001 -0.000003 -0.021773 -0.038278 0.012988 0.000000 -0.000001 -0.000003 0.000000 0.000001 0.000002 -0.000001 -0.000000 -0.000001 0.000002 0.000000 -0.000001 0.009113 -0.002381 -0.024211 0.000002 -0.000002 0.000002 0.000001 -0.000003 0.000005 -0.000001 0.000002 0.000001 -0.032828 -0.025095 0.012286 -0.000003 -0.000000 -0.000005 0.000003 -0.000002 0.000004 0.000003 0.000004 -0.000002 -0.000005 0.000005 -0.000004 -0.039192 -0.011488 0.008390 -0.000001 0.000000 0.000001 0.000002 0.000004 0.000000 0.000002 -0.000002 -0.000000 -0.000000 0.000003 -0.000002 -0.043421 0.002443 0.002844 0.000001 0.000000 -0.000003 -0.000002 0.000006 0.000003 -0.000001 -0.000001 0.000002 -0.000003 -0.000000 -0.000000 0.000000 0.000000 0.000000 -1.219846 -0.836896 10.192447 -18.891009 0.611942 9.250462 23.850370 -0.853860 8.650371 0.000002 0.000002 0.000001 -0.000001 -0.000000 -0.000001 0.000005 -0.000000 0.000000 -0.038000 -0.085200 0.016200 0.000002 -0.000002 -0.000000 0.000000 0.000000 0.000000 -1.215663 -0.836106 11.426691 -11.767637 0.298781 2.808321 24.578434 -0.519079 5.245231 0.000000 0.000000 0.000001 0.000001 -0.000001 0.000000 0.000003 -0.000000 0.000000 0.038000 -0.085200 0.016200 0.000001 -0.000000 0.000001 
